<?xml version="1.0" encoding="UTF-8" standalone="no"?>
<!-- Created with Inkscape (http://www.inkscape.org/) -->

<svg
   xmlns:dc="http://purl.org/dc/elements/1.1/"
   xmlns:cc="http://creativecommons.org/ns#"
   xmlns:rdf="http://www.w3.org/1999/02/22-rdf-syntax-ns#"
   xmlns:svg="http://www.w3.org/2000/svg"
   xmlns="http://www.w3.org/2000/svg"
   xmlns:sodipodi="http://sodipodi.sourceforge.net/DTD/sodipodi-0.dtd"
   xmlns:inkscape="http://www.inkscape.org/namespaces/inkscape"
   width="100mm"
   height="150mm"
   viewBox="0 0 100 150"
   version="1.1"
   id="svg8"
   inkscape:version="0.92.4 (unknown)"
   sodipodi:docname="favicon-l.svg">
  <defs
     id="defs2" />
  <sodipodi:namedview
     id="base"
     pagecolor="#ffffff"
     bordercolor="#666666"
     borderopacity="1.0"
     inkscape:pageopacity="0.0"
     inkscape:pageshadow="2"
     inkscape:zoom="0.98994948"
     inkscape:cx="158.88176"
     inkscape:cy="277.60743"
     inkscape:document-units="mm"
     inkscape:current-layer="layer2"
     showgrid="false"
     inkscape:window-width="1366"
     inkscape:window-height="702"
     inkscape:window-x="0"
     inkscape:window-y="0"
     inkscape:window-maximized="1" />
  <metadata
     id="metadata5">
    <rdf:RDF>
      <cc:Work
         rdf:about="">
        <dc:format>image/svg+xml</dc:format>
        <dc:type
           rdf:resource="http://purl.org/dc/dcmitype/StillImage" />
        <dc:title></dc:title>
      </cc:Work>
    </rdf:RDF>
  </metadata>
  <g
     inkscape:label="Layer 1"
     inkscape:groupmode="layer"
     id="layer1"
     transform="translate(0,-147)" />
  <g
     inkscape:groupmode="layer"
     id="layer2"
     inkscape:label="Layer 2"
     transform="translate(0,50)">
    <g
       id="g3095"
       transform="matrix(4.8388179,0,0,4.9311269,-194.47059,-220.52339)"
       style="fill:#ffffff;fill-opacity:1;stroke:none;stroke-opacity:1">
      <path
         sodipodi:nodetypes="scsss"
         inkscape:connector-curvature="0"
         id="path3036"
         d="m 52.422867,236.77481 -2.088776,5.19381 -2.088436,-5.19381 c -0.81562,-2.0284 0.934931,-5.19382 2.088436,-5.19382 1.153505,0 2.904459,3.16559 2.088776,5.19382 z"
         style="opacity:1;fill:#ffffff;fill-opacity:1;stroke:none;stroke-width:1.60869992;stroke-linecap:round;stroke-linejoin:round;stroke-miterlimit:60.20000076;stroke-dasharray:none;stroke-opacity:1;paint-order:markers stroke fill"
         transform="translate(0,-197)" />
      <path
         style="opacity:1;fill:#ffffff;fill-opacity:1;stroke:none;stroke-width:1.47248352;stroke-linecap:round;stroke-linejoin:round;stroke-miterlimit:60.20000076;stroke-dasharray:none;stroke-opacity:1;paint-order:markers stroke fill"
         d="m 57.022577,239.08019 -4.074302,3.42119 0.925942,-5.23889 c 0.361622,-2.04602 3.204661,-3.92331 4.074058,-3.42136 0.869395,0.50195 0.665353,3.90306 -0.925698,5.23906 z"
         id="path3039"
         inkscape:connector-curvature="0"
         sodipodi:nodetypes="scsss"
         transform="translate(0,-197)" />
      <path
         sodipodi:nodetypes="scsss"
         inkscape:connector-curvature="0"
         id="path3041"
         d="m 43.491674,239.08019 4.074302,3.42119 -0.925942,-5.23889 c -0.361622,-2.04602 -3.204661,-3.92331 -4.074058,-3.42136 -0.869395,0.50195 -0.665353,3.90306 0.925698,5.23906 z"
         style="opacity:1;fill:#ffffff;fill-opacity:1;stroke:none;stroke-width:1.47248352;stroke-linecap:round;stroke-linejoin:round;stroke-miterlimit:60.20000076;stroke-dasharray:none;stroke-opacity:1;paint-order:markers stroke fill"
         transform="translate(0,-197)" />
      <g
         transform="translate(-10.179852,-196.81862)"
         id="g2978"
         style="fill:#ffffff;fill-opacity:1;stroke:none;stroke-opacity:1">
        <path
           style="opacity:1;fill:#ffffff;fill-opacity:1;stroke:none;stroke-width:68.06144714;stroke-linecap:round;stroke-linejoin:round;stroke-miterlimit:60.20000076;stroke-dasharray:none;stroke-opacity:1;paint-order:markers stroke fill"
           d="m 189.78906,168.69141 c -67.70464,0 -125.994974,34.79605 -157.839841,87.27343 a 84.057669,85.302886 0 0 1 52.109375,-18.3789 84.057669,85.302886 0 0 1 84.056636,85.30273 84.057669,85.302886 0 0 1 -84.056636,85.30274 84.057669,85.302886 0 0 1 -30.230469,-5.80664 L 193.875,566.92969 329.8457,399.90039 a 84.057674,85.302893 0 0 1 -35.95117,8.29102 84.057674,85.302893 0 0 1 -84.05664,-85.30274 84.057674,85.302893 0 0 1 84.05664,-85.30273 84.057674,85.302893 0 0 1 60.66406,26.29101 C 324.718,204.0959 262.52094,168.69141 189.78906,168.69141 Z"
           transform="matrix(0.0544506,0,0,0.05365575,50.179852,231.39961)"
           id="rect22"
           inkscape:connector-curvature="0" />
        <rect
           style="opacity:1;fill:#ffffff;fill-opacity:1;stroke:none;stroke-width:1.11582077;stroke-linecap:round;stroke-linejoin:round;stroke-miterlimit:60.20000076;stroke-dasharray:none;stroke-opacity:1;paint-order:markers stroke fill"
           id="rect33"
           width="0.67562103"
           height="1.6434909"
           x="58.732483"
           y="254.00116"
           ry="0.50786662" />
        <rect
           ry="0.50786662"
           y="254.00116"
           x="61.672447"
           height="1.6434909"
           width="0.67562103"
           id="rect35"
           style="opacity:1;fill:#ffffff;fill-opacity:1;stroke:none;stroke-width:1.11582077;stroke-linecap:round;stroke-linejoin:round;stroke-miterlimit:60.20000076;stroke-dasharray:none;stroke-opacity:1;paint-order:markers stroke fill" />
        <path
           style="opacity:1;fill:#ffffff;fill-opacity:1;stroke:none;stroke-width:49.95215988;stroke-linecap:round;stroke-linejoin:round;stroke-miterlimit:60.20000076;stroke-dasharray:none;stroke-opacity:1;paint-order:markers stroke fill"
           d="m 97.556641,267.47266 a 54.606808,55.415746 0 0 0 -54.607422,55.41601 54.606808,55.415746 0 0 0 54.607422,55.41602 54.606808,55.415746 0 0 0 53.140629,-42.90821 44.176293,44.830714 0 0 1 -37.80274,21.73829 44.176293,44.830714 0 0 1 -44.17578,-44.83204 44.176293,44.830714 0 0 1 36.70313,-44.18164 54.606808,55.415746 0 0 0 -7.865239,-0.64843 z"
           transform="matrix(0.0544506,0,0,0.05365575,50.179852,231.39961)"
           id="path39"
           inkscape:connector-curvature="0" />
        <path
           style="opacity:1;fill:#ffffff;fill-opacity:1;stroke:none;stroke-width:49.95215988;stroke-linecap:round;stroke-linejoin:round;stroke-miterlimit:60.20000076;stroke-dasharray:none;stroke-opacity:1;paint-order:markers stroke fill"
           d="m 281.62305,267.47266 a 54.606808,55.415746 0 0 0 -54.60547,55.41601 54.606808,55.415746 0 0 0 54.60547,55.41602 54.606808,55.415746 0 0 0 54.60742,-55.41602 54.606808,55.415746 0 0 0 -0.32031,-5.44726 44.176293,44.830714 0 0 1 -43.85547,39.69336 44.176293,44.830714 0 0 1 -44.17578,-44.83204 44.176293,44.830714 0 0 1 39.42773,-44.51757 54.606808,55.415746 0 0 0 -5.68359,-0.3125 z"
           transform="matrix(0.0544506,0,0,0.05365575,50.179852,231.39961)"
           id="circle41"
           inkscape:connector-curvature="0" />
      </g>
    </g>
  </g>
</svg>
