<?xml version="1.0" encoding="UTF-8" standalone="no"?>
<!-- Generator: Adobe Illustrator 19.0.0, SVG Export Plug-In . SVG Version: 6.00 Build 0)  -->

<svg
   xmlns:dc="http://purl.org/dc/elements/1.1/"
   xmlns:cc="http://creativecommons.org/ns#"
   xmlns:rdf="http://www.w3.org/1999/02/22-rdf-syntax-ns#"
   xmlns:svg="http://www.w3.org/2000/svg"
   xmlns="http://www.w3.org/2000/svg"
   xmlns:sodipodi="http://sodipodi.sourceforge.net/DTD/sodipodi-0.dtd"
   xmlns:inkscape="http://www.inkscape.org/namespaces/inkscape"
   version="1.1"
   id="Capa_1"
   x="0px"
   y="0px"
   viewBox="0 0 30 30"
   xml:space="preserve"
   sodipodi:docname="search.svg"
   width="30"
   height="30"
   inkscape:version="0.92.4 (unknown)"><metadata
   id="metadata39"><rdf:RDF><cc:Work
       rdf:about=""><dc:format>image/svg+xml</dc:format><dc:type
         rdf:resource="http://purl.org/dc/dcmitype/StillImage" /><dc:title></dc:title></cc:Work></rdf:RDF></metadata><defs
   id="defs37" /><sodipodi:namedview
   pagecolor="#ffffff"
   bordercolor="#666666"
   borderopacity="1"
   objecttolerance="10"
   gridtolerance="10"
   guidetolerance="10"
   inkscape:pageopacity="0"
   inkscape:pageshadow="2"
   inkscape:window-width="1366"
   inkscape:window-height="702"
   id="namedview35"
   showgrid="false"
   inkscape:zoom="4.1428221"
   inkscape:cx="28.483"
   inkscape:cy="28.483"
   inkscape:window-x="0"
   inkscape:window-y="0"
   inkscape:window-maximized="1"
   inkscape:current-layer="Capa_1" />
<path
   d="m 29.54387,27.325247 -7.395514,-7.426009 c 1.901517,-2.182354 2.943369,-4.928202 2.943369,-7.78675 C 25.091725,5.4337675 19.463542,0 12.545862,0 5.6281829,0 0,5.4337675 0,12.112488 c 0,6.678721 5.6281829,12.112488 12.545862,12.112488 2.596994,0 5.071802,-0.75624 7.187689,-2.191833 L 27.185248,29.5155 C 27.496712,29.827792 27.915635,30 28.364559,30 c 0.424922,0 0.828027,-0.156409 1.134036,-0.440789 0.650203,-0.604045 0.670931,-1.605695 0.04528,-2.233964 z M 12.545862,3.1597795 c 5.113258,0 9.273029,4.0160798 9.273029,8.9527085 0,4.936629 -4.159771,8.952709 -9.273029,8.952709 -5.1132568,0 -9.2730283,-4.01608 -9.2730283,-8.952709 0,-4.9366287 4.1597715,-8.9527085 9.2730283,-8.9527085 z"
   id="path2"
   inkscape:connector-curvature="0"
   style="stroke-width:0.5359683;fill:#ffffff" />
<g
   id="g4"
   transform="translate(0,-26.966)">
</g>
<g
   id="g6"
   transform="translate(0,-26.966)">
</g>
<g
   id="g8"
   transform="translate(0,-26.966)">
</g>
<g
   id="g10"
   transform="translate(0,-26.966)">
</g>
<g
   id="g12"
   transform="translate(0,-26.966)">
</g>
<g
   id="g14"
   transform="translate(0,-26.966)">
</g>
<g
   id="g16"
   transform="translate(0,-26.966)">
</g>
<g
   id="g18"
   transform="translate(0,-26.966)">
</g>
<g
   id="g20"
   transform="translate(0,-26.966)">
</g>
<g
   id="g22"
   transform="translate(0,-26.966)">
</g>
<g
   id="g24"
   transform="translate(0,-26.966)">
</g>
<g
   id="g26"
   transform="translate(0,-26.966)">
</g>
<g
   id="g28"
   transform="translate(0,-26.966)">
</g>
<g
   id="g30"
   transform="translate(0,-26.966)">
</g>
<g
   id="g32"
   transform="translate(0,-26.966)">
</g>
</svg>