<?xml version="1.0" encoding="UTF-8" standalone="no"?>
<svg
   xmlns:dc="http://purl.org/dc/elements/1.1/"
   xmlns:cc="http://creativecommons.org/ns#"
   xmlns:rdf="http://www.w3.org/1999/02/22-rdf-syntax-ns#"
   xmlns:svg="http://www.w3.org/2000/svg"
   xmlns="http://www.w3.org/2000/svg"
   xmlns:sodipodi="http://sodipodi.sourceforge.net/DTD/sodipodi-0.dtd"
   xmlns:inkscape="http://www.inkscape.org/namespaces/inkscape"
   version="1.1"
   id="Capa_1"
   x="0px"
   y="0px"
   width="512"
   height="916.88202"
   viewBox="0 0 479.754 859.13636"
   xml:space="preserve"
   class=""
   sodipodi:docname="web-log-in-w.svg"
   inkscape:version="0.92.4 (unknown)"><metadata
   id="metadata17"><rdf:RDF><cc:Work
       rdf:about=""><dc:format>image/svg+xml</dc:format><dc:type
         rdf:resource="http://purl.org/dc/dcmitype/StillImage" /><dc:title></dc:title></cc:Work></rdf:RDF></metadata><defs
   id="defs15" /><sodipodi:namedview
   pagecolor="#ffffff"
   bordercolor="#666666"
   borderopacity="1"
   objecttolerance="10"
   gridtolerance="10"
   guidetolerance="10"
   inkscape:pageopacity="0"
   inkscape:pageshadow="2"
   inkscape:window-width="1366"
   inkscape:window-height="702"
   id="namedview13"
   showgrid="false"
   inkscape:zoom="0.4609375"
   inkscape:cx="256"
   inkscape:cy="429.55932"
   inkscape:window-x="0"
   inkscape:window-y="0"
   inkscape:window-maximized="1"
   inkscape:current-layer="Capa_1" /><g
   id="g10"
   transform="translate(0,404.47634)"><g
     id="g8">
	<g
   id="g6">
		<path
   d="M 468.146,25.092 H 129.638 c -6.411,0 -11.608,5.198 -11.608,11.608 0,6.413 5.197,11.61 11.608,11.61 H 456.537 V 431.443 H 129.638 c -6.411,0 -11.608,5.196 -11.608,11.611 0,6.408 5.197,11.606 11.608,11.606 h 338.508 c 6.41,0 11.607,-5.198 11.607,-11.606 V 36.701 c 0.001,-6.41 -5.196,-11.609 -11.607,-11.609 z"
   data-original="#000000"
   class="active-path"
   data-old_color="#000000"
   id="path2"
   inkscape:connector-curvature="0"
   style="fill:#ffffff" />
		<path
   d="m 176.793,310.41 c -4.535,4.536 -4.535,11.883 0,16.419 2.268,2.267 5.24,3.4 8.211,3.4 2.969,0 5.938,-1.135 8.206,-3.4 l 71.589,-71.588 c 4.536,-4.535 4.536,-11.885 0,-16.417 L 193.21,167.226 c -4.534,-4.538 -11.882,-4.538 -16.417,0 -4.535,4.528 -4.535,11.881 0,16.414 l 51.771,51.781 H 11.61 C 5.199,235.42 0,240.62 0,247.03 c 0,6.412 5.199,11.611 11.61,11.611 h 216.954 z"
   data-original="#000000"
   class="active-path"
   data-old_color="#000000"
   id="path4"
   inkscape:connector-curvature="0"
   style="fill:#ffffff" />
	<path
   style="fill:#000000"
   inkscape:connector-curvature="0"
   id="path85"
   data-old_color="#000000"
   class="active-path"
   data-original="#000000"
   d="M 468.146,-403.8406 H 129.638 c -6.411,0 -11.608,5.198 -11.608,11.608 0,6.413 5.197,11.61 11.608,11.61 H 456.537 V 2.5103982 H 129.638 c -6.411,0 -11.608,5.196 -11.608,11.6109998 0,6.408 5.197,11.606 11.608,11.606 h 338.508 c 6.41,0 11.607,-5.198 11.607,-11.606 V -392.2316 c 0.001,-6.41 -5.196,-11.609 -11.607,-11.609 z" /></g>
</g></g> <g
   id="g83"
   transform="matrix(0.93701953,0,0,0.93701953,0,-19.135858)"><g
     id="g25">
	<g
   id="g23">
		
		<path
   id="path21"
   d="m 176.793,310.41 c -4.535,4.536 -4.535,11.883 0,16.419 2.268,2.267 5.24,3.4 8.211,3.4 2.969,0 5.938,-1.135 8.206,-3.4 l 71.589,-71.588 c 4.536,-4.535 4.536,-11.885 0,-16.417 L 193.21,167.226 c -4.534,-4.538 -11.882,-4.538 -16.417,0 -4.535,4.528 -4.535,11.881 0,16.414 l 51.771,51.781 H 11.61 C 5.199,235.42 0,240.62 0,247.03 c 0,6.412 5.199,11.611 11.61,11.611 h 216.954 z"
   inkscape:connector-curvature="0" />
	</g>
</g><g
     id="g27">
</g><g
     id="g29">
</g><g
     id="g31">
</g><g
     id="g33">
</g><g
     id="g35">
</g><g
     id="g37">
</g><g
     id="g39">
</g><g
     id="g41">
</g><g
     id="g43">
</g><g
     id="g45">
</g><g
     id="g47">
</g><g
     id="g49">
</g><g
     id="g51">
</g><g
     id="g53">
</g><g
     id="g55">
</g></g></svg>