<?xml version="1.0" encoding="UTF-8" standalone="no"?>
<!-- Generator: Adobe Illustrator 19.0.0, SVG Export Plug-In . SVG Version: 6.00 Build 0)  -->

<svg
   xmlns:dc="http://purl.org/dc/elements/1.1/"
   xmlns:cc="http://creativecommons.org/ns#"
   xmlns:rdf="http://www.w3.org/1999/02/22-rdf-syntax-ns#"
   xmlns:svg="http://www.w3.org/2000/svg"
   xmlns="http://www.w3.org/2000/svg"
   xmlns:sodipodi="http://sodipodi.sourceforge.net/DTD/sodipodi-0.dtd"
   xmlns:inkscape="http://www.inkscape.org/namespaces/inkscape"
   version="1.1"
   id="Layer_1"
   x="0px"
   y="0px"
   viewBox="0 0 520 460"
   xml:space="preserve"
   sodipodi:docname="tick.svg"
   inkscape:version="0.92.4 (unknown)"
   width="520"
   height="460"><metadata
   id="metadata43"><rdf:RDF><cc:Work
       rdf:about=""><dc:format>image/svg+xml</dc:format><dc:type
         rdf:resource="http://purl.org/dc/dcmitype/StillImage" /><dc:title></dc:title></cc:Work></rdf:RDF></metadata><defs
   id="defs41" /><sodipodi:namedview
   pagecolor="#ffffff"
   bordercolor="#666666"
   borderopacity="1"
   objecttolerance="10"
   gridtolerance="10"
   guidetolerance="10"
   inkscape:pageopacity="0"
   inkscape:pageshadow="2"
   inkscape:window-width="1366"
   inkscape:window-height="702"
   id="namedview39"
   showgrid="false"
   inkscape:zoom="0.4609375"
   inkscape:cx="-31.19767"
   inkscape:cy="153.21087"
   inkscape:window-x="0"
   inkscape:window-y="0"
   inkscape:window-maximized="1"
   inkscape:current-layer="Layer_1" />
<g
   id="g6"
   style="fill:#adff2f;fill-opacity:1"
   transform="matrix(1.0008176,0,0,1.0004899,4.7959649,15.781343)">
	<g
   id="g4"
   style="fill:#adff2f;fill-opacity:1">
		<path
   d="M 513.17997,18.004475 C 504.26771,-15.857932 478.297,-21.281661 468.298,-11.283661 L 161.594,295.42334 43.702,177.53134 c -9.997,-9.998 -42.4761864,7.35893 -43.79722034,33.62712 C -10.09322,221.15546 -2.5,290.516 7.498,300.514 l 135.994,135.992 c 9.994,9.997 26.214,9.99 36.204,0 L 504.502,111.7 c 9.998,-9.997 12.27656,-80.022554 8.67797,-93.695525 z"
   id="path2"
   style="fill:#adff2f;fill-opacity:1"
   inkscape:connector-curvature="0"
   sodipodi:nodetypes="sccccccscs" />
	</g>
</g>
<g
   id="g8"
   transform="translate(0,-52)">
</g>
<g
   id="g10"
   transform="translate(0,-52)">
</g>
<g
   id="g12"
   transform="translate(0,-52)">
</g>
<g
   id="g14"
   transform="translate(0,-52)">
</g>
<g
   id="g16"
   transform="translate(0,-52)">
</g>
<g
   id="g18"
   transform="translate(0,-52)">
</g>
<g
   id="g20"
   transform="translate(0,-52)">
</g>
<g
   id="g22"
   transform="translate(0,-52)">
</g>
<g
   id="g24"
   transform="translate(0,-52)">
</g>
<g
   id="g26"
   transform="translate(0,-52)">
</g>
<g
   id="g28"
   transform="translate(0,-52)">
</g>
<g
   id="g30"
   transform="translate(0,-52)">
</g>
<g
   id="g32"
   transform="translate(0,-52)">
</g>
<g
   id="g34"
   transform="translate(0,-52)">
</g>
<g
   id="g36"
   transform="translate(0,-52)">
</g>
</svg>